<mxfile host="app.diagrams.net" modified="2024-05-22T01:15:17.980Z" agent="Mozilla/5.0 (Windows NT 10.0; Win64; x64) AppleWebKit/537.36 (KHTML, like Gecko) Chrome/125.0.0.0 Safari/537.36" version="24.4.4" etag="JvUuVsgzhQwGJpZ2SNNI" type="github">
  <diagram name="Page-1" id="D1oIPA-r_J5HKT66PPja">
    <mxGraphModel>
      <root>
        <mxCell id="0" />
        <mxCell id="1" parent="0" />
      </root>
    </mxGraphModel>
  </diagram>
</mxfile>
